<?xml version="1.0" encoding="UTF-8" standalone="no"?>
<svg xmlns="http://www.w3.org/2000/svg" version="1.2" baseProfile="tiny" viewBox="0.00 0.00 500.00 500.00">
<g stroke-width="2.00" fill="none" stroke-linecap="butt">
<path stroke="#7087a3" vector-effect="non-scaling-stroke" d="
  M 324.67 83.01
  L 320.09 86.48
  A 0.04 0.03 38.0 0 1 320.04 86.48
  Q 319.75 86.26 319.79 86.05
  A 0.05 0.03 76.7 0 1 319.80 86.02
  L 322.88 81.11"
/>
<path stroke="#889ab2" vector-effect="non-scaling-stroke" d="
  M 322.88 81.11
  L 325.72 77.39
  A 0.30 0.30 0.0 0 0 325.51 76.91
  Q 320.44 76.51 315.53 76.39
  Q 284.78 75.61 263.31 96.88"
/>
<path stroke="#7087a3" vector-effect="non-scaling-stroke" d="
  M 263.31 96.88
  C 251.86 109.22 245.12 124.46 242.97 141.29
  Q 241.22 154.91 241.67 160.05
  Q 243.00 175.39 242.92 185.00
  Q 242.87 189.95 241.31 198.54
  Q 240.94 200.59 242.36 202.88
  C 250.29 215.68 261.19 225.37 274.04 233.14
  A 0.24 0.23 -23.7 0 1 273.87 233.57
  Q 271.46 233.11 269.03 232.21
  Q 250.71 225.51 238.56 209.87
  A 0.29 0.29 0.0 0 0 238.07 209.94
  C 234.53 218.03 228.73 227.13 225.85 232.33
  C 217.01 248.26 211.34 267.47 212.36 285.95
  A 0.31 0.30 31.1 0 1 211.78 286.09
  C 206.67 275.26 206.72 263.33 209.71 251.75"
/>
<path stroke="#889ab2" vector-effect="non-scaling-stroke" d="
  M 209.71 251.75
  L 213.50 241.59
  A 0.11 0.11 0.0 0 0 213.34 241.46
  Q 206.99 245.42 201.49 248.02
  Q 186.47 255.11 171.66 262.42
  Q 153.42 271.42 137.20 284.70
  Q 124.69 294.93 116.22 309.04"
/>
<path stroke="#7087a3" vector-effect="non-scaling-stroke" d="
  M 116.22 309.04
  Q 113.68 312.23 111.84 316.56
  Q 108.55 324.32 106.23 332.41
  Q 103.23 342.85 103.84 352.24"
/>
<path stroke="#1964a1" vector-effect="non-scaling-stroke" d="
  M 103.84 352.24
  Q 103.59 354.70 103.71 356.00
  C 105.69 377.07 124.88 385.49 143.44 388.09
  Q 157.65 390.07 171.00 390.45
  Q 193.96 391.08 205.24 390.93
  C 211.71 390.84 216.08 388.16 221.86 384.58
  Q 231.03 378.92 230.62 368.00
  Q 230.28 358.84 227.95 348.89"
/>
<path stroke="#7087a3" vector-effect="non-scaling-stroke" d="
  M 227.95 348.89
  Q 227.22 341.14 227.64 335.88
  Q 228.29 327.59 232.47 320.52
  A 0.22 0.22 0.0 0 1 232.88 320.64
  Q 232.75 333.66 235.83 346.30"
/>
<path stroke="#406188" vector-effect="non-scaling-stroke" d="
  M 235.83 346.30
  Q 238.77 358.52 239.67 367.25
  Q 240.33 373.60 237.71 380.25
  C 235.34 386.27 228.53 390.63 223.23 393.73
  Q 214.03 399.11 205.64 403.32
  A 0.09 0.09 0.0 0 0 205.69 403.49
  Q 231.36 401.58 256.71 393.69
  A 0.28 0.28 0.0 0 1 256.94 394.20
  C 241.37 403.73 225.25 406.26 205.19 408.31
  C 200.14 408.83 195.87 409.70 192.58 413.10
  A 1.52 1.52 0.0 0 0 193.16 415.58
  C 199.17 417.74 206.53 417.51 213.25 417.29
  Q 235.42 416.57 257.19 411.90
  Q 267.74 409.63 277.71 405.03
  C 285.98 401.21 291.99 395.94 296.16 388.40
  Q 301.37 378.98 302.28 369.26"
/>
<path stroke="#7087a3" vector-effect="non-scaling-stroke" d="
  M 302.28 369.26
  C 302.92 365.72 303.86 362.34 303.99 358.92
  Q 304.44 346.45 303.73 339.75
  C 301.87 322.20 295.49 307.08 281.91 295.66
  A 0.21 0.21 0.0 0 1 282.12 295.30
  C 304.03 303.10 311.68 327.88 313.11 348.75"
/>
<path stroke="#1964a1" vector-effect="non-scaling-stroke" d="
  M 313.11 348.75
  Q 313.05 352.98 313.04 357.75
  C 313.04 368.47 311.27 378.58 307.46 388.57
  A 0.39 0.39 0.0 0 0 307.90 389.09
  Q 335.79 383.18 354.09 363.64"
/>
<path stroke="#889ab2" vector-effect="non-scaling-stroke" d="
  M 354.09 363.64
  Q 359.68 359.15 363.52 354.01
  C 381.67 329.70 387.59 299.98 384.62 270.20
  Q 382.81 252.06 378.90 238.03
  Q 373.50 218.65 371.39 213.16
  Q 363.83 193.54 356.97 173.87"
/>
<path stroke="#1964a1" vector-effect="non-scaling-stroke" d="
  M 356.97 173.87
  Q 355.25 164.79 355.13 159.25
  Q 355.03 154.54 356.43 146.27"
/>
<path stroke="#7087a3" vector-effect="non-scaling-stroke" d="
  M 356.43 146.27
  Q 365.51 135.76 371.06 124.13"
/>
<path stroke="#889ab2" vector-effect="non-scaling-stroke" d="
  M 371.06 124.13
  Q 374.76 115.97 375.79 108.45
  A 1.24 1.23 17.6 0 0 375.14 107.20
  L 370.94 105.00"
/>
<path stroke="#7087a3" vector-effect="non-scaling-stroke" d="
  M 370.94 105.00
  L 365.23 102.22
  A 0.60 0.60 0.0 0 0 364.46 102.42
  Q 355.62 115.30 341.71 122.74
  Q 338.56 124.42 335.93 124.52
  A 0.87 0.86 18.0 0 1 335.21 123.12
  L 335.54 122.71
  A 1.43 1.35 1.7 0 1 335.90 122.39
  Q 347.70 115.15 356.28 105.56
  Q 364.66 96.20 359.33 85.15
  Q 358.28 82.99 356.49 82.23
  C 350.86 79.83 346.11 78.70 343.23 75.24"
/>
<path stroke="#889ab2" vector-effect="non-scaling-stroke" d="
  M 343.23 75.24
  Q 344.31 74.26 344.41 72.63
  A 0.57 0.57 0.0 0 0 343.65 72.05
  Q 333.24 75.80 324.67 83.01"
/>
<path stroke="#e8ecf1" vector-effect="non-scaling-stroke" d="
  M 343.23 75.24
  L 326.01 83.98"
/>
<path stroke="#b8c6d6" vector-effect="non-scaling-stroke" d="
  M 326.01 83.98
  Q 325.69 83.67 325.29 83.63"
/>
<path stroke="#e8ecf1" vector-effect="non-scaling-stroke" d="
  M 325.29 83.63
  Q 325.03 83.26 324.67 83.01"
/>
<path stroke="#e8ecf1" vector-effect="non-scaling-stroke" d="
  M 370.94 105.00
  Q 371.74 113.83 371.36 116.53
  Q 370.63 121.71 371.06 124.13"
/>
<path stroke="#79b6e0" vector-effect="non-scaling-stroke" d="
  M 356.43 146.27
  C 342.96 157.83 328.66 162.79 311.32 165.05
  A 0.35 0.35 0.0 0 0 311.18 165.69
  C 323.12 173.36 339.05 179.00 353.27 176.20"
/>
<path stroke="#e8ecf1" vector-effect="non-scaling-stroke" d="
  M 353.27 176.20
  Q 357.64 188.01 361.81 200.07
  C 364.49 207.81 366.48 215.40 369.36 225.34
  Q 374.12 241.85 376.55 257.58
  Q 376.80 259.17 376.80 259.19
  Q 379.36 279.95 376.86 299.70"
/>
<path stroke="#79b6e0" vector-effect="non-scaling-stroke" d="
  M 376.86 299.70
  Q 368.79 314.70 357.73 324.48
  Q 343.44 337.12 324.93 344.40
  Q 315.62 348.05 313.11 348.75"
/>
<path stroke="#a0b3c7" vector-effect="non-scaling-stroke" d="
  M 302.28 369.26
  Q 301.78 361.03 298.88 354.34
  C 294.76 344.83 285.31 339.72 275.49 338.06
  Q 253.95 334.43 235.83 346.30"
/>
<path stroke="#79b6e0" vector-effect="non-scaling-stroke" d="
  M 227.95 348.89
  Q 199.65 360.99 169.38 363.93
  C 153.99 365.43 139.35 365.55 124.98 362.31
  Q 114.14 359.87 103.84 352.24"
/>
<path stroke="#e8ecf1" vector-effect="non-scaling-stroke" d="
  M 116.22 309.04
  Q 120.71 304.70 124.77 300.25
  Q 128.52 296.13 130.47 294.49
  Q 135.04 290.62 136.64 289.05
  A 8.04 8.01 8.5 0 1 138.50 287.68
  Q 142.65 285.48 146.95 281.68
  A 5.88 5.56 -79.1 0 1 147.94 280.97
  Q 159.77 274.11 160.54 273.63
  C 165.56 270.53 170.82 268.79 175.87 265.99
  Q 181.19 263.05 187.50 260.54
  Q 190.89 259.19 202.43 253.64
  Q 205.80 252.02 209.71 251.75"
/>
<path stroke="#e8ecf1" vector-effect="non-scaling-stroke" d="
  M 263.31 96.88
  Q 263.47 97.62 263.74 97.61
  Q 264.29 97.60 264.67 97.26
  C 267.84 94.43 271.13 92.07 275.14 90.16
  Q 279.08 88.26 282.99 86.27
  C 289.10 83.15 294.63 82.32 300.88 81.07
  A 5.20 5.10 -49.9 0 1 302.03 80.96
  L 322.88 81.11"
/>
<path stroke="#a0b3c7" vector-effect="non-scaling-stroke" d="
  M 325.29 83.63
  Q 324.82 84.50 325.43 84.71
  A 0.51 0.51 0.0 0 0 326.11 84.23
  Q 326.12 84.04 326.01 83.98"
/>
<path stroke="#91c9ef" vector-effect="non-scaling-stroke" d="
  M 356.97 173.87
  Q 355.36 175.54 353.27 176.20"
/>
<path stroke="#91c9ef" vector-effect="non-scaling-stroke" d="
  M 354.09 363.64
  Q 364.17 349.49 369.83 334.09
  Q 374.81 320.55 376.69 306.24
  Q 377.04 303.52 376.86 299.70"
/>
<path stroke="#7087a3" vector-effect="non-scaling-stroke" d="
  M 376.79 102.66
  Q 377.17 97.85 376.66 93.04
  C 376.04 87.31 372.60 79.06 367.24 75.43
  A 0.45 0.45 0.0 0 0 366.60 75.58
  L 363.35 81.19
  A 1.28 1.28 0.0 0 0 363.23 82.18
  Q 365.24 89.56 365.36 96.03
  A 1.02 1.00 15.1 0 0 365.86 96.88
  L 376.31 102.91
  A 0.32 0.32 0.0 0 0 376.79 102.66"
/>
<path stroke="#406188" vector-effect="non-scaling-stroke" d="
  M 404.89 375.29
  L 407.06 378.40
  A 0.67 0.67 0.0 0 1 406.51 379.45
  C 399.65 379.47 393.34 371.17 390.58 365.38
  Q 384.83 353.36 382.47 339.63
  A 0.38 0.38 0.0 0 0 381.77 339.50
  L 375.86 349.74
  A 2.15 2.14 -37.8 0 0 375.65 351.34
  C 381.28 372.45 392.43 386.80 416.23 386.19
  Q 428.67 385.88 439.71 382.46
  Q 440.50 382.22 441.43 381.56
  A 0.77 0.77 0.0 0 0 441.23 380.21
  Q 436.30 378.56 431.47 378.11
  Q 420.45 377.11 404.99 375.11
  A 0.11 0.11 0.0 0 0 404.89 375.29"
/>
<path stroke="#406188" vector-effect="non-scaling-stroke" d="
  M 57.80 384.87
  Q 60.16 385.02 63.00 384.71
  Q 79.53 382.91 104.00 379.95
  A 0.33 0.32 69.5 0 0 104.23 379.44
  L 97.92 370.41
  A 0.56 0.55 66.5 0 0 97.36 370.18
  C 85.70 372.28 73.54 375.25 62.82 380.58
  Q 59.95 382.01 57.60 384.37
  A 0.30 0.29 23.8 0 0 57.80 384.87"
/>
<path stroke="#7087a3" vector-effect="non-scaling-stroke" d="
  M 343.7922 90.9184
  A 1.76 1.58 -41.3 0 0 341.4272 90.8930
  A 1.76 1.58 -41.3 0 0 341.1478 93.2416
  A 1.76 1.58 -41.3 0 0 343.5128 93.2670
  A 1.76 1.58 -41.3 0 0 343.7922 90.9184"
/>
<path stroke="#7087a3" vector-effect="non-scaling-stroke" d="
  M 308.5486 93.5927
  A 11.71 9.09 -48.7 0 0 293.9910 96.3906
  A 11.71 9.09 -48.7 0 0 293.0914 111.1873
  A 11.71 9.09 -48.7 0 0 307.6490 108.3894
  A 11.71 9.09 -48.7 0 0 308.5486 93.5927"
/>
<path stroke="#7087a3" vector-effect="non-scaling-stroke" d="
  M 336.9031 97.5850
  A 1.80 1.53 -24.1 0 0 334.6353 96.9234
  A 1.80 1.53 -24.1 0 0 333.6169 99.0550
  A 1.80 1.53 -24.1 0 0 335.8847 99.7166
  A 1.80 1.53 -24.1 0 0 336.9031 97.5850"
/>
<path stroke="#7087a3" vector-effect="non-scaling-stroke" d="
  M 344.5884 98.4902
  A 1.81 1.52 -89.1 0 0 343.0402 100.2761
  A 1.81 1.52 -89.1 0 0 344.5316 102.1098
  A 1.81 1.52 -89.1 0 0 346.0798 100.3239
  A 1.81 1.52 -89.1 0 0 344.5884 98.4902"
/>
<path stroke="#7087a3" vector-effect="non-scaling-stroke" d="
  M 306.16 135.87
  Q 308.75 131.47 309.97 129.22
  Q 315.65 118.73 329.22 103.74
  A 0.36 0.35 49.6 0 0 329.25 103.31
  L 329.07 103.07
  A 0.55 0.55 0.0 0 0 328.28 102.95
  Q 313.56 114.60 307.37 130.37
  Q 306.25 133.22 305.90 135.78
  A 0.14 0.14 0.0 0 0 306.16 135.87"
/>
<path stroke="#7087a3" vector-effect="non-scaling-stroke" d="
  M 340.70 105.51
  A 1.72 1.72 0.0 0 0 338.98 103.79
  A 1.72 1.72 0.0 0 0 337.26 105.51
  A 1.72 1.72 0.0 0 0 338.98 107.23
  A 1.72 1.72 0.0 0 0 340.70 105.51"
/>
<path stroke="#7087a3" vector-effect="non-scaling-stroke" d="
  M 323.71 123.28
  Q 322.18 126.89 320.74 132.06
  Q 319.32 137.12 319.90 141.84
  A 0.39 0.39 0.0 0 0 320.67 141.89
  Q 323.20 132.32 326.52 124.47
  Q 329.84 116.62 334.94 108.14
  A 0.39 0.39 0.0 0 0 334.37 107.62
  Q 330.58 110.49 327.94 115.04
  Q 325.23 119.67 323.71 123.28"
/>
<path stroke="#7087a3" vector-effect="non-scaling-stroke" d="
  M 269.74 138.65
  C 265.94 139.68 262.83 142.68 259.90 144.39
  Q 258.78 145.05 258.22 145.04
  A 1.85 1.56 -77.6 0 1 256.93 142.58
  C 258.73 137.70 262.06 133.25 265.08 128.96
  A 0.34 0.34 0.0 0 0 264.65 128.46
  Q 258.19 131.74 254.17 137.92
  C 251.90 141.42 251.27 147.51 255.91 149.30
  C 261.54 151.46 267.54 143.20 269.96 138.94
  A 0.20 0.20 0.0 0 0 269.74 138.65"
/>
<path stroke="#889ab2" vector-effect="non-scaling-stroke" d="
  M 300.7387 95.9927
  A 3.01 2.40 -38.1 0 0 296.8891 95.9614
  A 3.01 2.40 -38.1 0 0 296.0013 99.7073
  A 3.01 2.40 -38.1 0 0 299.8509 99.7386
  A 3.01 2.40 -38.1 0 0 300.7387 95.9927"
/>
</g>
<path fill="#103564" d="
  M 405.96 99.04
  A 0.30 0.30 0.0 0 1 405.47 99.39
  Q 396.58 90.14 383.07 86.83
  A 1.05 1.04 -81.2 0 0 381.78 87.78
  Q 381.70 89.25 382.18 90.43
  A 1.78 1.74 -87.4 0 0 382.98 91.33
  Q 396.24 98.41 402.06 112.70
  A 0.09 0.09 0.0 0 1 402.02 112.81
  L 401.58 113.13
  A 0.26 0.25 57.2 0 1 401.22 113.05
  C 396.95 105.60 390.82 99.45 383.46 95.31
  A 0.40 0.40 0.0 0 0 382.87 95.60
  Q 382.36 99.27 384.17 101.49
  C 390.10 108.76 393.44 115.96 394.71 124.87
  A 0.49 0.49 0.0 0 1 394.26 125.43
  L 394.24 125.43
  A 0.55 0.55 0.0 0 1 393.66 125.03
  Q 390.61 114.44 383.86 105.19
  A 0.51 0.50 30.1 0 0 382.95 105.43
  Q 381.28 120.31 373.55 134.06
  Q 371.97 136.87 365.45 146.95
  C 360.58 154.49 363.50 168.80 366.43 177.06
  C 370.52 188.54 376.94 204.91 381.72 219.25
  C 393.00 253.08 398.04 288.25 388.34 322.59
  C 387.89 324.18 387.88 327.68 388.18 329.49
  Q 390.35 342.51 394.91 355.85
  Q 397.07 362.16 400.20 367.53
  A 2.69 2.68 -13.3 0 0 402.35 368.85
  C 416.59 369.74 428.49 370.24 440.93 373.05
  C 445.53 374.09 452.82 377.17 449.85 383.36
  C 448.05 387.09 443.10 389.02 439.06 390.32
  C 433.03 392.26 426.50 393.91 419.63 394.86
  Q 391.59 398.77 363.98 395.58
  Q 349.90 393.96 337.81 387.71
  A 2.20 2.20 0.0 0 0 335.92 387.65
  Q 319.97 394.71 303.14 397.22
  A 5.91 5.88 18.6 0 0 299.90 398.82
  C 293.70 404.77 288.36 409.29 280.53 413.02
  C 274.46 415.92 265.88 418.59 258.89 419.99
  Q 231.60 425.44 203.99 424.91
  C 198.11 424.80 178.93 422.78 183.50 411.94
  C 185.48 407.24 190.80 403.84 195.93 400.42
  Q 196.52 400.03 197.01 399.43
  A 0.45 0.45 0.0 0 0 196.65 398.69
  Q 176.59 399.11 157.90 397.47
  C 150.60 396.82 141.63 395.37 134.25 394.14
  Q 130.15 393.46 124.72 393.62
  Q 113.79 393.94 99.36 394.15
  C 82.58 394.39 74.88 394.61 60.98 393.09
  Q 56.30 392.57 52.06 390.95
  C 47.91 389.37 47.41 385.47 49.95 382.02
  Q 52.97 377.92 57.46 375.42
  Q 74.52 365.89 94.61 363.13
  A 0.92 0.92 0.0 0 0 95.39 362.10
  Q 92.37 338.67 102.44 316.67
  Q 108.97 302.39 117.73 292.46
  C 132.17 276.06 150.07 263.87 169.41 254.43
  Q 185.94 246.35 203.72 237.73
  Q 212.03 233.70 216.29 230.30
  Q 218.53 228.52 221.91 223.42
  Q 232.82 206.95 234.33 189.02
  Q 234.68 184.87 233.95 169.79
  C 232.73 144.40 236.94 116.00 253.88 95.89
  C 273.08 73.10 301.43 64.53 330.71 70.66
  A 4.16 4.14 -54.6 0 0 333.73 70.14
  Q 336.92 68.18 339.21 67.00
  C 347.78 62.57 361.09 59.99 368.13 68.11
  Q 370.53 70.88 371.29 71.36
  C 375.46 74.05 378.14 78.31 379.89 82.83
  A 1.62 1.60 -5.7 0 0 381.14 83.84
  Q 393.87 85.85 402.84 94.87
  Q 404.88 96.91 405.96 99.04
  Z
  M 324.67 83.01
  L 320.09 86.48
  A 0.04 0.03 38.0 0 1 320.04 86.48
  Q 319.75 86.26 319.79 86.05
  A 0.05 0.03 76.7 0 1 319.80 86.02
  L 322.88 81.11
  L 325.72 77.39
  A 0.30 0.30 0.0 0 0 325.51 76.91
  Q 320.44 76.51 315.53 76.39
  Q 284.78 75.61 263.31 96.88
  C 251.86 109.22 245.12 124.46 242.97 141.29
  Q 241.22 154.91 241.67 160.05
  Q 243.00 175.39 242.92 185.00
  Q 242.87 189.95 241.31 198.54
  Q 240.94 200.59 242.36 202.88
  C 250.29 215.68 261.19 225.37 274.04 233.14
  A 0.24 0.23 -23.7 0 1 273.87 233.57
  Q 271.46 233.11 269.03 232.21
  Q 250.71 225.51 238.56 209.87
  A 0.29 0.29 0.0 0 0 238.07 209.94
  C 234.53 218.03 228.73 227.13 225.85 232.33
  C 217.01 248.26 211.34 267.47 212.36 285.95
  A 0.31 0.30 31.1 0 1 211.78 286.09
  C 206.67 275.26 206.72 263.33 209.71 251.75
  L 213.50 241.59
  A 0.11 0.11 0.0 0 0 213.34 241.46
  Q 206.99 245.42 201.49 248.02
  Q 186.47 255.11 171.66 262.42
  Q 153.42 271.42 137.20 284.70
  Q 124.69 294.93 116.22 309.04
  Q 113.68 312.23 111.84 316.56
  Q 108.55 324.32 106.23 332.41
  Q 103.23 342.85 103.84 352.24
  Q 103.59 354.70 103.71 356.00
  C 105.69 377.07 124.88 385.49 143.44 388.09
  Q 157.65 390.07 171.00 390.45
  Q 193.96 391.08 205.24 390.93
  C 211.71 390.84 216.08 388.16 221.86 384.58
  Q 231.03 378.92 230.62 368.00
  Q 230.28 358.84 227.95 348.89
  Q 227.22 341.14 227.64 335.88
  Q 228.29 327.59 232.47 320.52
  A 0.22 0.22 0.0 0 1 232.88 320.64
  Q 232.75 333.66 235.83 346.30
  Q 238.77 358.52 239.67 367.25
  Q 240.33 373.60 237.71 380.25
  C 235.34 386.27 228.53 390.63 223.23 393.73
  Q 214.03 399.11 205.64 403.32
  A 0.09 0.09 0.0 0 0 205.69 403.49
  Q 231.36 401.58 256.71 393.69
  A 0.28 0.28 0.0 0 1 256.94 394.20
  C 241.37 403.73 225.25 406.26 205.19 408.31
  C 200.14 408.83 195.87 409.70 192.58 413.10
  A 1.52 1.52 0.0 0 0 193.16 415.58
  C 199.17 417.74 206.53 417.51 213.25 417.29
  Q 235.42 416.57 257.19 411.90
  Q 267.74 409.63 277.71 405.03
  C 285.98 401.21 291.99 395.94 296.16 388.40
  Q 301.37 378.98 302.28 369.26
  C 302.92 365.72 303.86 362.34 303.99 358.92
  Q 304.44 346.45 303.73 339.75
  C 301.87 322.20 295.49 307.08 281.91 295.66
  A 0.21 0.21 0.0 0 1 282.12 295.30
  C 304.03 303.10 311.68 327.88 313.11 348.75
  Q 313.05 352.98 313.04 357.75
  C 313.04 368.47 311.27 378.58 307.46 388.57
  A 0.39 0.39 0.0 0 0 307.90 389.09
  Q 335.79 383.18 354.09 363.64
  Q 359.68 359.15 363.52 354.01
  C 381.67 329.70 387.59 299.98 384.62 270.20
  Q 382.81 252.06 378.90 238.03
  Q 373.50 218.65 371.39 213.16
  Q 363.83 193.54 356.97 173.87
  Q 355.25 164.79 355.13 159.25
  Q 355.03 154.54 356.43 146.27
  Q 365.51 135.76 371.06 124.13
  Q 374.76 115.97 375.79 108.45
  A 1.24 1.23 17.6 0 0 375.14 107.20
  L 370.94 105.00
  L 365.23 102.22
  A 0.60 0.60 0.0 0 0 364.46 102.42
  Q 355.62 115.30 341.71 122.74
  Q 338.56 124.42 335.93 124.52
  A 0.87 0.86 18.0 0 1 335.21 123.12
  L 335.54 122.71
  A 1.43 1.35 1.7 0 1 335.90 122.39
  Q 347.70 115.15 356.28 105.56
  Q 364.66 96.20 359.33 85.15
  Q 358.28 82.99 356.49 82.23
  C 350.86 79.83 346.11 78.70 343.23 75.24
  Q 344.31 74.26 344.41 72.63
  A 0.57 0.57 0.0 0 0 343.65 72.05
  Q 333.24 75.80 324.67 83.01
  Z
  M 376.79 102.66
  Q 377.17 97.85 376.66 93.04
  C 376.04 87.31 372.60 79.06 367.24 75.43
  A 0.45 0.45 0.0 0 0 366.60 75.58
  L 363.35 81.19
  A 1.28 1.28 0.0 0 0 363.23 82.18
  Q 365.24 89.56 365.36 96.03
  A 1.02 1.00 15.1 0 0 365.86 96.88
  L 376.31 102.91
  A 0.32 0.32 0.0 0 0 376.79 102.66
  Z
  M 404.89 375.29
  L 407.06 378.40
  A 0.67 0.67 0.0 0 1 406.51 379.45
  C 399.65 379.47 393.34 371.17 390.58 365.38
  Q 384.83 353.36 382.47 339.63
  A 0.38 0.38 0.0 0 0 381.77 339.50
  L 375.86 349.74
  A 2.15 2.14 -37.8 0 0 375.65 351.34
  C 381.28 372.45 392.43 386.80 416.23 386.19
  Q 428.67 385.88 439.71 382.46
  Q 440.50 382.22 441.43 381.56
  A 0.77 0.77 0.0 0 0 441.23 380.21
  Q 436.30 378.56 431.47 378.11
  Q 420.45 377.11 404.99 375.11
  A 0.11 0.11 0.0 0 0 404.89 375.29
  Z
  M 57.80 384.87
  Q 60.16 385.02 63.00 384.71
  Q 79.53 382.91 104.00 379.95
  A 0.33 0.32 69.5 0 0 104.23 379.44
  L 97.92 370.41
  A 0.56 0.55 66.5 0 0 97.36 370.18
  C 85.70 372.28 73.54 375.25 62.82 380.58
  Q 59.95 382.01 57.60 384.37
  A 0.30 0.29 23.8 0 0 57.80 384.87
  Z"
/>
<path fill="#ffffff" d="
  M 343.23 75.24
  L 326.01 83.98
  Q 325.69 83.67 325.29 83.63
  Q 325.03 83.26 324.67 83.01
  Q 333.24 75.80 343.65 72.05
  A 0.57 0.57 0.0 0 1 344.41 72.63
  Q 344.31 74.26 343.23 75.24
  Z"
/>
<path fill="#d0d9e2" d="
  M 376.79 102.66
  A 0.32 0.32 0.0 0 1 376.31 102.91
  L 365.86 96.88
  A 1.02 1.00 15.1 0 1 365.36 96.03
  Q 365.24 89.56 363.23 82.18
  A 1.28 1.28 0.0 0 1 363.35 81.19
  L 366.60 75.58
  A 0.45 0.45 0.0 0 1 367.24 75.43
  C 372.60 79.06 376.04 87.31 376.66 93.04
  Q 377.17 97.85 376.79 102.66
  Z"
/>
<path fill="#d0d9e2" d="
  M 343.23 75.24
  C 346.11 78.70 350.86 79.83 356.49 82.23
  Q 358.28 82.99 359.33 85.15
  Q 364.66 96.20 356.28 105.56
  Q 347.70 115.15 335.90 122.39
  A 1.43 1.35 1.7 0 0 335.54 122.71
  L 335.21 123.12
  A 0.87 0.86 18.0 0 0 335.93 124.52
  Q 338.56 124.42 341.71 122.74
  Q 355.62 115.30 364.46 102.42
  A 0.60 0.60 0.0 0 1 365.23 102.22
  L 370.94 105.00
  Q 371.74 113.83 371.36 116.53
  Q 370.63 121.71 371.06 124.13
  Q 365.51 135.76 356.43 146.27
  C 342.96 157.83 328.66 162.79 311.32 165.05
  A 0.35 0.35 0.0 0 0 311.18 165.69
  C 323.12 173.36 339.05 179.00 353.27 176.20
  Q 357.64 188.01 361.81 200.07
  C 364.49 207.81 366.48 215.40 369.36 225.34
  Q 374.12 241.85 376.55 257.58
  Q 376.80 259.17 376.80 259.19
  Q 379.36 279.95 376.86 299.70
  Q 368.79 314.70 357.73 324.48
  Q 343.44 337.12 324.93 344.40
  Q 315.62 348.05 313.11 348.75
  C 311.68 327.88 304.03 303.10 282.12 295.30
  A 0.21 0.21 0.0 0 0 281.91 295.66
  C 295.49 307.08 301.87 322.20 303.73 339.75
  Q 304.44 346.45 303.99 358.92
  C 303.86 362.34 302.92 365.72 302.28 369.26
  Q 301.78 361.03 298.88 354.34
  C 294.76 344.83 285.31 339.72 275.49 338.06
  Q 253.95 334.43 235.83 346.30
  Q 232.75 333.66 232.88 320.64
  A 0.22 0.22 0.0 0 0 232.47 320.52
  Q 228.29 327.59 227.64 335.88
  Q 227.22 341.14 227.95 348.89
  Q 199.65 360.99 169.38 363.93
  C 153.99 365.43 139.35 365.55 124.98 362.31
  Q 114.14 359.87 103.84 352.24
  Q 103.23 342.85 106.23 332.41
  Q 108.55 324.32 111.84 316.56
  Q 113.68 312.23 116.22 309.04
  Q 120.71 304.70 124.77 300.25
  Q 128.52 296.13 130.47 294.49
  Q 135.04 290.62 136.64 289.05
  A 8.04 8.01 8.5 0 1 138.50 287.68
  Q 142.65 285.48 146.95 281.68
  A 5.88 5.56 -79.1 0 1 147.94 280.97
  Q 159.77 274.11 160.54 273.63
  C 165.56 270.53 170.82 268.79 175.87 265.99
  Q 181.19 263.05 187.50 260.54
  Q 190.89 259.19 202.43 253.64
  Q 205.80 252.02 209.71 251.75
  C 206.72 263.33 206.67 275.26 211.78 286.09
  A 0.31 0.30 31.1 0 0 212.36 285.95
  C 211.34 267.47 217.01 248.26 225.85 232.33
  C 228.73 227.13 234.53 218.03 238.07 209.94
  A 0.29 0.29 0.0 0 1 238.56 209.87
  Q 250.71 225.51 269.03 232.21
  Q 271.46 233.11 273.87 233.57
  A 0.24 0.23 -23.7 0 0 274.04 233.14
  C 261.19 225.37 250.29 215.68 242.36 202.88
  Q 240.94 200.59 241.31 198.54
  Q 242.87 189.95 242.92 185.00
  Q 243.00 175.39 241.67 160.05
  Q 241.22 154.91 242.97 141.29
  C 245.12 124.46 251.86 109.22 263.31 96.88
  Q 263.47 97.62 263.74 97.61
  Q 264.29 97.60 264.67 97.26
  C 267.84 94.43 271.13 92.07 275.14 90.16
  Q 279.08 88.26 282.99 86.27
  C 289.10 83.15 294.63 82.32 300.88 81.07
  A 5.20 5.10 -49.9 0 1 302.03 80.96
  L 322.88 81.11
  L 319.80 86.02
  A 0.05 0.03 76.7 0 0 319.79 86.05
  Q 319.75 86.26 320.04 86.48
  A 0.04 0.03 38.0 0 0 320.09 86.48
  L 324.67 83.01
  Q 325.03 83.26 325.29 83.63
  Q 324.82 84.50 325.43 84.71
  A 0.51 0.51 0.0 0 0 326.11 84.23
  Q 326.12 84.04 326.01 83.98
  L 343.23 75.24
  Z
  M 343.7922 90.9184
  A 1.76 1.58 -41.3 0 0 341.4272 90.8930
  A 1.76 1.58 -41.3 0 0 341.1478 93.2416
  A 1.76 1.58 -41.3 0 0 343.5128 93.2670
  A 1.76 1.58 -41.3 0 0 343.7922 90.9184
  Z
  M 308.5486 93.5927
  A 11.71 9.09 -48.7 0 0 293.9910 96.3906
  A 11.71 9.09 -48.7 0 0 293.0914 111.1873
  A 11.71 9.09 -48.7 0 0 307.6490 108.3894
  A 11.71 9.09 -48.7 0 0 308.5486 93.5927
  Z
  M 336.9031 97.5850
  A 1.80 1.53 -24.1 0 0 334.6353 96.9234
  A 1.80 1.53 -24.1 0 0 333.6169 99.0550
  A 1.80 1.53 -24.1 0 0 335.8847 99.7166
  A 1.80 1.53 -24.1 0 0 336.9031 97.5850
  Z
  M 344.5884 98.4902
  A 1.81 1.52 -89.1 0 0 343.0402 100.2761
  A 1.81 1.52 -89.1 0 0 344.5316 102.1098
  A 1.81 1.52 -89.1 0 0 346.0798 100.3239
  A 1.81 1.52 -89.1 0 0 344.5884 98.4902
  Z
  M 306.16 135.87
  Q 308.75 131.47 309.97 129.22
  Q 315.65 118.73 329.22 103.74
  A 0.36 0.35 49.6 0 0 329.25 103.31
  L 329.07 103.07
  A 0.55 0.55 0.0 0 0 328.28 102.95
  Q 313.56 114.60 307.37 130.37
  Q 306.25 133.22 305.90 135.78
  A 0.14 0.14 0.0 0 0 306.16 135.87
  Z
  M 340.70 105.51
  A 1.72 1.72 0.0 0 0 338.98 103.79
  A 1.72 1.72 0.0 0 0 337.26 105.51
  A 1.72 1.72 0.0 0 0 338.98 107.23
  A 1.72 1.72 0.0 0 0 340.70 105.51
  Z
  M 323.71 123.28
  Q 322.18 126.89 320.74 132.06
  Q 319.32 137.12 319.90 141.84
  A 0.39 0.39 0.0 0 0 320.67 141.89
  Q 323.20 132.32 326.52 124.47
  Q 329.84 116.62 334.94 108.14
  A 0.39 0.39 0.0 0 0 334.37 107.62
  Q 330.58 110.49 327.94 115.04
  Q 325.23 119.67 323.71 123.28
  Z
  M 269.74 138.65
  C 265.94 139.68 262.83 142.68 259.90 144.39
  Q 258.78 145.05 258.22 145.04
  A 1.85 1.56 -77.6 0 1 256.93 142.58
  C 258.73 137.70 262.06 133.25 265.08 128.96
  A 0.34 0.34 0.0 0 0 264.65 128.46
  Q 258.19 131.74 254.17 137.92
  C 251.90 141.42 251.27 147.51 255.91 149.30
  C 261.54 151.46 267.54 143.20 269.96 138.94
  A 0.20 0.20 0.0 0 0 269.74 138.65
  Z"
/>
<path fill="#ffffff" d="
  M 322.88 81.11
  L 302.03 80.96
  A 5.20 5.10 -49.9 0 0 300.88 81.07
  C 294.63 82.32 289.10 83.15 282.99 86.27
  Q 279.08 88.26 275.14 90.16
  C 271.13 92.07 267.84 94.43 264.67 97.26
  Q 264.29 97.60 263.74 97.61
  Q 263.47 97.62 263.31 96.88
  Q 284.78 75.61 315.53 76.39
  Q 320.44 76.51 325.51 76.91
  A 0.30 0.30 0.0 0 1 325.72 77.39
  L 322.88 81.11
  Z"
/>
<path fill="#708dac" d="
  M 325.29 83.63
  Q 325.69 83.67 326.01 83.98
  Q 326.12 84.04 326.11 84.23
  A 0.51 0.51 0.0 0 1 325.43 84.71
  Q 324.82 84.50 325.29 83.63
  Z"
/>
<ellipse fill="#103564" cx="0.00" cy="0.00" transform="translate(342.47,92.08) rotate(-41.3)" rx="1.76" ry="1.58"/>
<path fill="#103564" d="
  M 308.5486 93.5927
  A 11.71 9.09 -48.7 0 1 307.6490 108.3894
  A 11.71 9.09 -48.7 0 1 293.0914 111.1873
  A 11.71 9.09 -48.7 0 1 293.9910 96.3906
  A 11.71 9.09 -48.7 0 1 308.5486 93.5927
  Z
  M 300.7387 95.9927
  A 3.01 2.40 -38.1 0 0 296.8891 95.9614
  A 3.01 2.40 -38.1 0 0 296.0013 99.7073
  A 3.01 2.40 -38.1 0 0 299.8509 99.7386
  A 3.01 2.40 -38.1 0 0 300.7387 95.9927
  Z"
/>
<ellipse fill="#ffffff" cx="0.00" cy="0.00" transform="translate(298.37,97.85) rotate(-38.1)" rx="3.01" ry="2.40"/>
<ellipse fill="#103564" cx="0.00" cy="0.00" transform="translate(335.26,98.32) rotate(-24.1)" rx="1.80" ry="1.53"/>
<ellipse fill="#103564" cx="0.00" cy="0.00" transform="translate(344.56,100.30) rotate(-89.1)" rx="1.81" ry="1.52"/>
<path fill="#103564" d="
  M 305.90 135.78
  Q 306.25 133.22 307.37 130.37
  Q 313.56 114.60 328.28 102.95
  A 0.55 0.55 0.0 0 1 329.07 103.07
  L 329.25 103.31
  A 0.36 0.35 49.6 0 1 329.22 103.74
  Q 315.65 118.73 309.97 129.22
  Q 308.75 131.47 306.16 135.87
  A 0.14 0.14 0.0 0 1 305.90 135.78
  Z"
/>
<circle fill="#103564" cx="338.98" cy="105.51" r="1.72"/>
<path fill="#ffffff" d="
  M 370.94 105.00
  L 375.14 107.20
  A 1.24 1.23 17.6 0 1 375.79 108.45
  Q 374.76 115.97 371.06 124.13
  Q 370.63 121.71 371.36 116.53
  Q 371.74 113.83 370.94 105.00
  Z"
/>
<path fill="#103564" d="
  M 326.52 124.47
  Q 323.20 132.32 320.67 141.89
  A 0.39 0.39 0.0 0 1 319.90 141.84
  Q 319.32 137.12 320.74 132.06
  Q 322.18 126.89 323.71 123.28
  Q 325.23 119.67 327.94 115.04
  Q 330.58 110.49 334.37 107.62
  A 0.39 0.39 0.0 0 1 334.94 108.14
  Q 329.84 116.62 326.52 124.47
  Z"
/>
<path fill="#103564" d="
  M 269.74 138.65
  A 0.20 0.20 0.0 0 1 269.96 138.94
  C 267.54 143.20 261.54 151.46 255.91 149.30
  C 251.27 147.51 251.90 141.42 254.17 137.92
  Q 258.19 131.74 264.65 128.46
  A 0.34 0.34 0.0 0 1 265.08 128.96
  C 262.06 133.25 258.73 137.70 256.93 142.58
  A 1.85 1.56 -77.6 0 0 258.22 145.04
  Q 258.78 145.05 259.90 144.39
  C 262.83 142.68 265.94 139.68 269.74 138.65
  Z"
/>
<path fill="#2293de" d="
  M 356.43 146.27
  Q 355.03 154.54 355.13 159.25
  Q 355.25 164.79 356.97 173.87
  Q 355.36 175.54 353.27 176.20
  C 339.05 179.00 323.12 173.36 311.18 165.69
  A 0.35 0.35 0.0 0 1 311.32 165.05
  C 328.66 162.79 342.96 157.83 356.43 146.27
  Z"
/>
<path fill="#ffffff" d="
  M 356.97 173.87
  Q 363.83 193.54 371.39 213.16
  Q 373.50 218.65 378.90 238.03
  Q 382.81 252.06 384.62 270.20
  C 387.59 299.98 381.67 329.70 363.52 354.01
  Q 359.68 359.15 354.09 363.64
  Q 364.17 349.49 369.83 334.09
  Q 374.81 320.55 376.69 306.24
  Q 377.04 303.52 376.86 299.70
  Q 379.36 279.95 376.80 259.19
  Q 376.80 259.17 376.55 257.58
  Q 374.12 241.85 369.36 225.34
  C 366.48 215.40 364.49 207.81 361.81 200.07
  Q 357.64 188.01 353.27 176.20
  Q 355.36 175.54 356.97 173.87
  Z"
/>
<path fill="#ffffff" d="
  M 209.71 251.75
  Q 205.80 252.02 202.43 253.64
  Q 190.89 259.19 187.50 260.54
  Q 181.19 263.05 175.87 265.99
  C 170.82 268.79 165.56 270.53 160.54 273.63
  Q 159.77 274.11 147.94 280.97
  A 5.88 5.56 -79.1 0 0 146.95 281.68
  Q 142.65 285.48 138.50 287.68
  A 8.04 8.01 8.5 0 0 136.64 289.05
  Q 135.04 290.62 130.47 294.49
  Q 128.52 296.13 124.77 300.25
  Q 120.71 304.70 116.22 309.04
  Q 124.69 294.93 137.20 284.70
  Q 153.42 271.42 171.66 262.42
  Q 186.47 255.11 201.49 248.02
  Q 206.99 245.42 213.34 241.46
  A 0.11 0.11 0.0 0 1 213.50 241.59
  L 209.71 251.75
  Z"
/>
<path fill="#2293de" d="
  M 376.86 299.70
  Q 377.04 303.52 376.69 306.24
  Q 374.81 320.55 369.83 334.09
  Q 364.17 349.49 354.09 363.64
  Q 335.79 383.18 307.90 389.09
  A 0.39 0.39 0.0 0 1 307.46 388.57
  C 311.27 378.58 313.04 368.47 313.04 357.75
  Q 313.05 352.98 313.11 348.75
  Q 315.62 348.05 324.93 344.40
  Q 343.44 337.12 357.73 324.48
  Q 368.79 314.70 376.86 299.70
  Z"
/>
<path fill="#708dac" d="
  M 302.28 369.26
  Q 301.37 378.98 296.16 388.40
  C 291.99 395.94 285.98 401.21 277.71 405.03
  Q 267.74 409.63 257.19 411.90
  Q 235.42 416.57 213.25 417.29
  C 206.53 417.51 199.17 417.74 193.16 415.58
  A 1.52 1.52 0.0 0 1 192.58 413.10
  C 195.87 409.70 200.14 408.83 205.19 408.31
  C 225.25 406.26 241.37 403.73 256.94 394.20
  A 0.28 0.28 0.0 0 0 256.71 393.69
  Q 231.36 401.58 205.69 403.49
  A 0.09 0.09 0.0 0 1 205.64 403.32
  Q 214.03 399.11 223.23 393.73
  C 228.53 390.63 235.34 386.27 237.71 380.25
  Q 240.33 373.60 239.67 367.25
  Q 238.77 358.52 235.83 346.30
  Q 253.95 334.43 275.49 338.06
  C 285.31 339.72 294.76 344.83 298.88 354.34
  Q 301.78 361.03 302.28 369.26
  Z"
/>
<path fill="#708dac" d="
  M 404.89 375.29
  A 0.11 0.11 0.0 0 1 404.99 375.11
  Q 420.45 377.11 431.47 378.11
  Q 436.30 378.56 441.23 380.21
  A 0.77 0.77 0.0 0 1 441.43 381.56
  Q 440.50 382.22 439.71 382.46
  Q 428.67 385.88 416.23 386.19
  C 392.43 386.80 381.28 372.45 375.65 351.34
  A 2.15 2.14 -37.8 0 1 375.86 349.74
  L 381.77 339.50
  A 0.38 0.38 0.0 0 1 382.47 339.63
  Q 384.83 353.36 390.58 365.38
  C 393.34 371.17 399.65 379.47 406.51 379.45
  A 0.67 0.67 0.0 0 0 407.06 378.40
  L 404.89 375.29
  Z"
/>
<path fill="#2293de" d="
  M 227.95 348.89
  Q 230.28 358.84 230.62 368.00
  Q 231.03 378.92 221.86 384.58
  C 216.08 388.16 211.71 390.84 205.24 390.93
  Q 193.96 391.08 171.00 390.45
  Q 157.65 390.07 143.44 388.09
  C 124.88 385.49 105.69 377.07 103.71 356.00
  Q 103.59 354.70 103.84 352.24
  Q 114.14 359.87 124.98 362.31
  C 139.35 365.55 153.99 365.43 169.38 363.93
  Q 199.65 360.99 227.95 348.89
  Z"
/>
<path fill="#708dac" d="
  M 57.80 384.87
  A 0.30 0.29 23.8 0 1 57.60 384.37
  Q 59.95 382.01 62.82 380.58
  C 73.54 375.25 85.70 372.28 97.36 370.18
  A 0.56 0.55 66.5 0 1 97.92 370.41
  L 104.23 379.44
  A 0.33 0.32 69.5 0 1 104.00 379.95
  Q 79.53 382.91 63.00 384.71
  Q 60.16 385.02 57.80 384.87
  Z"
/>
</svg>
